{
  "accessors": [
    {
      "bufferView": 2,
      "componentType": 5126,
      "count": 37321,
      "max": [
        1.243640422821045,
        1.0,
        2.3300533294677734
      ],
      "min": [
        -1.1671547889709473,
        -1.0,
        0.0011750459671020508
      ],
      "type": "VEC3"
    },
    {
      "bufferView": 2,
      "byteOffset": 447852,
      "componentType": 5126,
      "count": 37321,
      "max": [
        0.9976974725723267,
        0.9990759491920471,
        0.999990701675415
      ],
      "min": [
        -0.9976967573165894,
        -0.9990761280059814,
        -1.0
      ],
      "type": "VEC3"
    },
    {
      "bufferView": 3,
      "componentType": 5126,
      "count": 37321,
      "max": [
        0.9952442049980164,
        0.9999995827674866,
        0.9999598264694214,
        1.0
      ],
      "min": [
        -1.0,
        -0.9990420937538147,
        -0.9999597668647766,
        1.0
      ],
      "type": "VEC4"
    },
    {
      "bufferView": 1,
      "componentType": 5126,
      "count": 37321,
      "max": [
        0.9990491271018982,
        0.99900221824646
      ],
      "min": [
        0.0009394176304340363,
        0.0009421996655873954
      ],
      "type": "VEC2"
    },
    {
      "bufferView": 0,
      "componentType": 5125,
      "count": 98802,
      "type": "SCALAR"
    },
    {
      "bufferView": 2,
      "byteOffset": 895704,
      "componentType": 5126,
      "count": 1843,
      "max": [
        0.06256850808858871,
        0.08283717185258865,
        0.13298700749874115
      ],
      "min": [
        -0.19653558731079102,
        -0.8859332203865051,
        -0.26383575797080994
      ],
      "type": "VEC3"
    },
    {
      "bufferView": 2,
      "byteOffset": 917820,
      "componentType": 5126,
      "count": 1843,
      "max": [
        1.0,
        0.9998127222061157,
        0.9996975064277649
      ],
      "min": [
        -1.0,
        -0.9984445571899414,
        -0.999952495098114
      ],
      "type": "VEC3"
    },
    {
      "bufferView": 3,
      "byteOffset": 597136,
      "componentType": 5126,
      "count": 1843,
      "max": [
        0.9999935030937195,
        0.9934726357460022,
        0.9997267127037048,
        1.0
      ],
      "min": [
        -0.9999786019325256,
        -0.9999770522117615,
        -0.9992387890815735,
        -1.0
      ],
      "type": "VEC4"
    },
    {
      "bufferView": 1,
      "byteOffset": 298568,
      "componentType": 5126,
      "count": 1843,
      "max": [
        0.8178223967552185,
        0.146900936961174
      ],
      "min": [
        0.2792370915412903,
        0.0009414516389369965
      ],
      "type": "VEC2"
    },
    {
      "bufferView": 0,
      "byteOffset": 395208,
      "componentType": 5125,
      "count": 8064,
      "type": "SCALAR"
    },
    {
      "bufferView": 2,
      "byteOffset": 939936,
      "componentType": 5126,
      "count": 918,
      "max": [
        0.4035392105579376,
        0.08625561743974686,
        1.178270936012268
      ],
      "min": [
        -0.5548732876777649,
        -0.10627920925617218,
        0.04557296633720398
      ],
      "type": "VEC3"
    },
    {
      "bufferView": 2,
      "byteOffset": 950952,
      "componentType": 5126,
      "count": 918,
      "max": [
        0.9999059438705444,
        1.0,
        0.9907178282737732
      ],
      "min": [
        -0.9992669224739075,
        -0.9999999403953552,
        -0.9903516173362732
      ],
      "type": "VEC3"
    },
    {
      "bufferView": 3,
      "byteOffset": 626624,
      "componentType": 5126,
      "count": 918,
      "max": [
        0.9888893365859985,
        0.9997278451919556,
        0.9992218613624573,
        1.0
      ],
      "min": [
        -0.9999939203262329,
        -0.9994831681251526,
        -0.9986951947212219,
        1.0
      ],
      "type": "VEC4"
    },
    {
      "bufferView": 1,
      "byteOffset": 313312,
      "componentType": 5126,
      "count": 918,
      "max": [
        0.8335247039794922,
        0.1356460005044937
      ],
      "min": [
        0.301741361618042,
        0.0009409051272086799
      ],
      "type": "VEC2"
    },
    {
      "bufferView": 0,
      "byteOffset": 427464,
      "componentType": 5125,
      "count": 4416,
      "type": "SCALAR"
    }
  ],
  "asset": {
    "extras": {
      "author": "Duznot (https://sketchfab.com/duz_vr)",
      "license": "CC-BY-4.0 (http://creativecommons.org/licenses/by/4.0/)",
      "source": "https://sketchfab.com/3d-models/g-bush-8bbc6686077243f19eefad969f5024e4",
      "title": "G. Bush"
    },
    "generator": "Sketchfab-14.77.0",
    "version": "2.0"
  },
  "bufferViews": [
    {
      "buffer": 0,
      "byteLength": 445128,
      "name": "floatBufferViews",
      "target": 34963
    },
    {
      "buffer": 0,
      "byteLength": 320656,
      "byteOffset": 445128,
      "byteStride": 8,
      "name": "floatBufferViews",
      "target": 34962
    },
    {
      "buffer": 0,
      "byteLength": 961968,
      "byteOffset": 765784,
      "byteStride": 12,
      "name": "floatBufferViews",
      "target": 34962
    },
    {
      "buffer": 0,
      "byteLength": 641312,
      "byteOffset": 1727752,
      "byteStride": 16,
      "name": "floatBufferViews",
      "target": 34962
    }
  ],
  "buffers": [
    {
      "byteLength": 2369064,
      "uri": "scene.bin"
    }
  ],
  "images": [
    {
      "uri": "textures/Bush_baseColor.jpeg"
    },
    {
      "uri": "textures/Bush_metallicRoughness.png"
    },
    {
      "uri": "textures/Bush_normal.png"
    }
  ],
  "materials": [
    {
      "doubleSided": true,
      "name": "Bush",
      "normalTexture": {
        "index": 2
      },
      "occlusionTexture": {
        "index": 1
      },
      "pbrMetallicRoughness": {
        "baseColorTexture": {
          "index": 0
        },
        "metallicRoughnessTexture": {
          "index": 1
        }
      }
    }
  ],
  "meshes": [
    {
      "name": "Sandbox_Bush_0",
      "primitives": [
        {
          "attributes": {
            "NORMAL": 1,
            "POSITION": 0,
            "TANGENT": 2,
            "TEXCOORD_0": 3
          },
          "indices": 4,
          "material": 0,
          "mode": 4
        }
      ]
    },
    {
      "name": "Tie_Bush_0",
      "primitives": [
        {
          "attributes": {
            "NORMAL": 6,
            "POSITION": 5,
            "TANGENT": 7,
            "TEXCOORD_0": 8
          },
          "indices": 9,
          "material": 0,
          "mode": 4
        }
      ]
    },
    {
      "name": "Bark_Bush_0",
      "primitives": [
        {
          "attributes": {
            "NORMAL": 11,
            "POSITION": 10,
            "TANGENT": 12,
            "TEXCOORD_0": 13
          },
          "indices": 14,
          "material": 0,
          "mode": 4
        }
      ]
    }
  ],
  "nodes": [
    {
      "children": [
        1
      ],
      "matrix": [
        1.0,
        0.0,
        0.0,
        0.0,
        0.0,
        2.220446049250313e-16,
        -1.0,
        0.0,
        0.0,
        1.0,
        2.220446049250313e-16,
        0.0,
        0.0,
        0.0,
        0.0,
        1.0
      ],
      "name": "Sketchfab_model"
    },
    {
      "children": [
        2
      ],
      "matrix": [
        0.009999999776482582,
        0.0,
        0.0,
        0.0,
        0.0,
        0.0,
        0.009999999776482582,
        0.0,
        0.0,
        -0.009999999776482582,
        0.0,
        0.0,
        0.0,
        0.0,
        0.0,
        1.0
      ],
      "name": "Old Tree.fbx"
    },
    {
      "children": [
        3,
        5,
        7
      ],
      "name": "RootNode"
    },
    {
      "children": [
        4
      ],
      "matrix": [
        100.0,
        0.0,
        0.0,
        0.0,
        0.0,
        -1.629206793918314e-05,
        -99.99999999999868,
        0.0,
        0.0,
        99.99999999999868,
        -1.629206793918314e-05,
        0.0,
        0.0,
        0.0,
        0.0,
        1.0
      ],
      "name": "Sandbox"
    },
    {
      "mesh": 0,
      "name": "Sandbox_Bush_0"
    },
    {
      "children": [
        6
      ],
      "matrix": [
        100.0,
        0.0,
        0.0,
        0.0,
        0.0,
        -1.629206793918314e-05,
        -99.99999999999868,
        0.0,
        0.0,
        99.99999999999868,
        -1.629206793918314e-05,
        0.0,
        0.6275855898857117,
        41.58185577392578,
        0.0,
        1.0
      ],
      "name": "Tie"
    },
    {
      "mesh": 1,
      "name": "Tie_Bush_0"
    },
    {
      "children": [
        8
      ],
      "matrix": [
        100.0,
        0.0,
        0.0,
        0.0,
        0.0,
        -1.629206793918314e-05,
        -99.99999999999868,
        0.0,
        0.0,
        99.99999999999868,
        -1.629206793918314e-05,
        0.0,
        0.0,
        0.0,
        0.0,
        1.0
      ],
      "name": "Bark"
    },
    {
      "mesh": 2,
      "name": "Bark_Bush_0"
    }
  ],
  "samplers": [
    {
      "magFilter": 9729,
      "minFilter": 9987,
      "wrapS": 10497,
      "wrapT": 10497
    }
  ],
  "scene": 0,
  "scenes": [
    {
      "name": "Sketchfab_Scene",
      "nodes": [
        0
      ]
    }
  ],
  "textures": [
    {
      "sampler": 0,
      "source": 0
    },
    {
      "sampler": 0,
      "source": 1
    },
    {
      "sampler": 0,
      "source": 2
    }
  ]
}
